# xmcd CD database file
# Copyright (C) 1997 Ti Kan
# 
# Track frame offsets:
#     183
#     14440
#     28040
#     41540
#     59025
#     71470
#     84290
#     100198
#     116878
#     131105
#     141608
#     156090
#     169370
# 
# Disc length: 2423 seconds
# 
# Revision: 1
# Processed by: cddbd v1.4b41PL1 Copyright (c) Steve Scherf et al.
# Submitted via: DiscPlay 4.0.4
# 
DISCID=bd09750d
DTITLE=Various Artist - La Veillee chez le pere jos
DYEAR=1900
DGENRE=
TTITLE0=La veillee chez le pere jos
TTITLE1=Le cavalier de ma soeur
TTITLE2=C'est a boire qu'il nous faut
TTITLE3=La bouteille de rhum
TTITLE4=C'est y bete un homme comme ca
TTITLE5=Dondaine la ridaine
TTITLE6=Le reel du marsouin
TTITLE7=Il a marie ma blonde
TTITLE8=Leve ton pied legere bergere
TTITLE9=En sautant la ptite barriere
TTITLE10=A la claire fontaine
TTITLE11=Cecilia polka
TTITLE12=La poule a collin
EXTD=
EXTT0=
EXTT1=
EXTT2=
EXTT3=
EXTT4=
EXTT5=
EXTT6=
EXTT7=
EXTT8=
EXTT9=
EXTT10=
EXTT11=
EXTT12=
PLAYORDER=
